<svg width="22" height="20" viewBox="0 0 22 20" fill="none" xmlns="http://www.w3.org/2000/svg">
<path d="M11 0C9.65418 0 8.32154 0.265079 7.07816 0.780103C5.83478 1.29513 4.70502 2.05001 3.75338 3.00165C1.83146 4.92357 0.751732 7.53026 0.751732 10.2483C0.751732 14.778 3.69299 18.6211 7.76155 19.9841C8.27396 20.0661 8.43793 19.7484 8.43793 19.4717C8.43793 19.236 8.43793 18.5904 8.43793 17.7398C5.59916 18.3547 4.99452 16.3665 4.99452 16.3665C4.5231 15.1777 3.85696 14.86 3.85696 14.86C2.92437 14.2246 3.9287 14.2451 3.9287 14.2451C4.95352 14.3168 5.49668 15.3007 5.49668 15.3007C6.38828 16.8584 7.89478 16.3972 8.47893 16.1513C8.57116 15.4851 8.83762 15.0342 9.12457 14.778C6.84945 14.5218 4.46161 13.6404 4.46161 9.73586C4.46161 8.5983 4.85104 7.6862 5.51718 6.95858C5.41469 6.70237 5.05601 5.63655 5.61966 4.25303C5.61966 4.25303 6.48052 3.97633 8.43793 5.29836C9.24755 5.07289 10.1289 4.96016 11 4.96016C11.8711 4.96016 12.7525 5.07289 13.5621 5.29836C15.5195 3.97633 16.3803 4.25303 16.3803 4.25303C16.944 5.63655 16.5853 6.70237 16.4828 6.95858C17.149 7.6862 17.5384 8.5983 17.5384 9.73586C17.5384 13.6507 15.1403 14.5115 12.8549 14.7678C13.2239 15.0855 13.5621 15.7106 13.5621 16.6637V19.4717C13.5621 19.7484 13.726 20.0764 14.2487 19.9841C18.3173 18.6109 21.2483 14.778 21.2483 10.2483C21.2483 8.90245 20.9832 7.5698 20.4682 6.32643C19.9531 5.08305 19.1983 3.95329 18.2466 3.00165C17.295 2.05001 16.1652 1.29513 14.9218 0.780103C13.6785 0.265079 12.3458 0 11 0Z" fill="white"/>
</svg>
