<svg width="22" height="12" viewBox="0 0 22 12" fill="none" xmlns="http://www.w3.org/2000/svg">
<path d="M18.9582 8.41176C18.9582 8.41176 20.6075 10.0878 21.0155 10.8634C21.0234 10.8746 21.0296 10.887 21.0339 10.9001C21.2001 11.1866 21.2409 11.4112 21.1593 11.5771C21.0216 11.851 20.5555 11.9885 20.3974 12H17.4822C17.2792 12 16.857 11.9454 16.3429 11.5802C15.9502 11.2979 15.5595 10.833 15.1811 10.3785C14.616 9.70369 14.1274 9.11807 13.6327 9.11807C13.5702 9.11793 13.5082 9.12858 13.4491 9.14956C13.0748 9.2713 12.5995 9.82019 12.5995 11.2821C12.5995 11.7397 12.2486 12 12.0028 12H10.6676C10.2127 12 7.84422 11.8363 5.74404 9.55781C3.17058 6.76824 0.859255 1.17229 0.836815 1.12297C0.692995 0.760889 0.994915 0.563583 1.32132 0.563583H4.26504C4.65978 0.563583 4.7883 0.809166 4.87806 1.02956C4.9821 1.28249 5.36766 2.29421 6.00006 3.43082C7.02414 5.28004 7.65348 6.03254 8.15634 6.03254C8.25082 6.03282 8.3437 6.00748 8.42562 5.95907C9.0825 5.58755 8.9601 3.17369 8.9295 2.67623C8.9295 2.57967 8.92848 1.59839 8.59188 1.12402C8.35116 0.783978 7.94112 0.65174 7.69326 0.603463C7.75956 0.50481 7.90032 0.353682 8.08086 0.264474C8.53068 0.0335839 9.34362 0 10.1504 0H10.5982C11.4734 0.012594 11.6998 0.0703165 12.0181 0.153227C12.6586 0.310652 12.6709 0.7378 12.6148 2.19241C12.5984 2.60801 12.5811 3.07609 12.5811 3.62708C12.5811 3.74462 12.576 3.87581 12.576 4.0091C12.5566 4.75529 12.5311 5.59594 13.0432 5.94123C13.1096 5.9838 13.1863 6.00634 13.2645 6.0063C13.442 6.0063 13.9734 6.0063 15.4147 3.46126C16.0471 2.33724 16.5367 1.01172 16.5703 0.912017C16.5989 0.856393 16.6846 0.700017 16.7886 0.637047C16.8626 0.596532 16.9455 0.576292 17.0293 0.578275H20.4922C20.8696 0.578275 21.1257 0.637048 21.1756 0.783978C21.2593 1.02221 21.1593 1.74952 19.5783 3.94927C19.3121 4.31555 19.0785 4.6325 18.8735 4.90957C17.4404 6.84485 17.4404 6.94245 18.9582 8.41176Z" fill="white"/>
</svg>
