<svg width="18" height="12" viewBox="0 0 18 12" fill="none" xmlns="http://www.w3.org/2000/svg">
<path d="M7.25834 8.53265V3.46735L11.7094 6L7.25834 8.53265ZM17.1611 1.87367C16.9652 1.13591 16.3872 0.554649 15.6547 0.3577C14.3261 -3.17271e-08 9 0 9 0C9 0 3.67388 -3.17271e-08 2.34528 0.3577C1.61285 0.554649 1.03478 1.13591 0.838893 1.87367C0.483322 3.21079 0.483322 6 0.483322 6C0.483322 6 0.483322 8.78921 0.838893 10.1263C1.03478 10.8641 1.61285 11.4454 2.34528 11.6423C3.67388 12 9 12 9 12C9 12 14.3261 12 15.6547 11.6423C16.3872 11.4454 16.9652 10.8641 17.1611 10.1263C17.5167 8.78921 17.5167 6 17.5167 6C17.5167 6 17.5167 3.21079 17.1611 1.87367Z" fill="white"/>
</svg>
